<svg xmlns="http://www.w3.org/2000/svg" width="18" height="18" viewBox="0 0 18 18">
    <g fill="#00B9F5" fill-rule="evenodd">
        <path d="M16.11 2.09h-1.123V1.45a.642.642 0 0 0-1.284 0v.642H4.714v-.642a.642.642 0 0 0-1.284 0v.642H2.307c-.797 0-1.445.648-1.445 1.444v12.52c0 .796.648 1.445 1.445 1.445H16.11c.796 0 1.444-.649 1.444-1.445V3.535c0-.796-.648-1.444-1.444-1.444zM2.308 3.376H3.43v.642a.642.642 0 0 0 1.284 0v-.642h8.989v.642a.642.642 0 0 0 1.284 0v-.642h1.124a.16.16 0 0 1 .16.16v1.766H2.146V3.535a.16.16 0 0 1 .16-.16zm13.804 12.84H2.307a.16.16 0 0 1-.16-.16v-9.47H16.27v9.47c0 .088-.072.16-.16.16z"/>
        <path d="M6.64 9.153a.642.642 0 1 1 0-1.284.642.642 0 0 1 0 1.284zm2.569 0a.642.642 0 1 1 0-1.284.642.642 0 0 1 0 1.284zm2.568 0a.642.642 0 1 1 0-1.284.642.642 0 0 1 0 1.284zm2.568 0a.642.642 0 1 1 0-1.284.642.642 0 0 1 0 1.284zM4.072 11.721a.642.642 0 1 1 0-1.284.642.642 0 0 1 0 1.284zm2.568 0a.642.642 0 1 1 0-1.284.642.642 0 0 1 0 1.284zm2.569 0a.642.642 0 1 1 0-1.284.642.642 0 0 1 0 1.284zm2.568 0a.642.642 0 1 1 0-1.284.642.642 0 0 1 0 1.284zm2.568 0a.642.642 0 1 1 0-1.284.642.642 0 0 1 0 1.284zM4.072 14.29a.642.642 0 1 1 0-1.284.642.642 0 0 1 0 1.284zm2.568 0a.642.642 0 1 1 0-1.284.642.642 0 0 1 0 1.284zm2.569 0a.642.642 0 1 1 0-1.284.642.642 0 0 1 0 1.284z"/>
    </g>
</svg>
