<svg xmlns="http://www.w3.org/2000/svg" width="42" height="42" viewBox="0 0 42 42">
    <g fill="none" fill-rule="evenodd" transform="translate(0 2)">
        <g stroke="#012B72" stroke-linecap="round" stroke-width="3">
            <path d="M32.76 2.119v11.167M25.914 7.232L32.61.564l6.995 6.668"/>
        </g>
        <path stroke="#012B72" stroke-width="3" d="M33.305 21.088L13.25 6.26H6.001A4.493 4.493 0 0 0 1.5 10.753v22.5a4.502 4.502 0 0 0 4.496 4.502h9.266v3h-.852v-3h14.403a4.502 4.502 0 0 0 4.492-4.499v-10.5-2.044.376z"/>
        <path fill="#012B72" d="M33.276 24.24c-.807-.193-1.462-1.025-1.462-1.85v-2.88a1.496 1.496 0 1 1 2.993-.002v3.603c0 .827-.649 1.341-1.46 1.146l-.071-.016z"/>
        <rect width="8.701" height="3" x="12.052" y="4.761" fill="#012B72" rx="1.5"/>
        <path fill="#00B9F5" d="M12.518 15.986h9.043c.051.006.077.032.077.076v.853c0 .05-.026.075-.077.075h-3.403v.076c.485.26.86.79 1.128 1.592l.039.275h2.236c.051.006.077.031.077.075v.853c0 .05-.026.076-.077.076h-2.15c0 .954-.59 1.882-1.769 2.785-1.045.594-1.788.89-2.227.89 0 .026-.026.039-.077.039l4.856 6.234v.075H18.35c-.019 0-1.895-2.412-5.63-7.238l.583-.038c2.065 0 3.304-.736 3.719-2.207.025-.177.038-.32.038-.427v-.113h-4.54c-.052 0-.077-.025-.077-.076v-.853c.006-.05.032-.075.076-.075h4.503a2.476 2.476 0 0 0-.975-1.403c-.689-.36-1.316-.54-1.884-.54h-1.644c-.05 0-.076-.025-.076-.075v-.853c.006-.05.032-.076.076-.076z"/>
    </g>
</svg>
