<svg xmlns="http://www.w3.org/2000/svg" xmlns:xlink="http://www.w3.org/1999/xlink" width="24" height="33" viewBox="0 0 24 33">
    <defs>
        <path id="a" d="M1.527.454c-.012 0-.195.27-.548.808v.03h1.466c.246 0 .523.051.83.154.431.172.722.414.872.724v.012h-2.62c-.007 0-.195.272-.559.814 0 .016.007.024.023.024h3.3a.995.995 0 0 1-.07.365c-.296.807-1.052 1.21-2.267 1.21-.257 0-.482-.015-.675-.042l-.012.03v.784c0 .012 1.085 1.309 3.254 3.893h1.206c.019 0 .029-.008.029-.024v-.159l-2.741-3.38c-.242-.287-.363-.45-.363-.489v-.012c.492 0 1.008-.131 1.546-.395.289-.118.591-.375.906-.772.239-.394.369-.73.392-1.009h1.027c.008 0 .189-.271.542-.814 0-.011-.01-.02-.029-.024h-1.58a2 2 0 0 0-.416-.89h1.483c.042-.035.226-.311.554-.826V.454h-5.55z"/>
    </defs>
    <g fill="none" fill-rule="evenodd">
        <g transform="translate(8 11.283)">
            <mask id="b" fill="#fff">
                <use xlink:href="#a"/>
            </mask>
            <path fill="#00B9F5" d="M-3.084 13.402H11.13V-3.687H-3.084z" mask="url(#b)"/>
        </g>
        <g stroke="#FFF" stroke-linecap="round" stroke-linejoin="round" stroke-width="1.5">
            <path d="M18.252 6.707c2.963 2.044 4.91 5.506 4.91 9.433 0 6.283-4.986 11.376-11.14 11.376M4.819 24.819A11.45 11.45 0 0 1 .881 16.14c0-6.283 4.989-11.376 11.141-11.376"/>
            <path d="M9.457 8.126l3.949-3.544L9.72.75M14.617 31.353l-3.804-3.707 3.837-3.674"/>
        </g>
    </g>
</svg>
