<svg xmlns="http://www.w3.org/2000/svg" width="19" height="20" viewBox="0 0 19 20">
    <path fill="#666" fill-rule="evenodd" d="M17.97 3.951A2.96 2.96 0 0 0 15.019 1a2.96 2.96 0 0 0-2.829 3.812L6.312 8.354a2.855 2.855 0 0 0-2.36-1.205A2.96 2.96 0 0 0 1 10.099a2.96 2.96 0 0 0 2.951 2.952c.984 0 1.845-.467 2.361-1.205l5.878 3.517c-.073.295-.123.59-.123.885A2.96 2.96 0 0 0 15.02 19.2a2.96 2.96 0 0 0 2.951-2.952 2.96 2.96 0 0 0-2.951-2.95c-.984 0-1.845.466-2.361 1.204L6.78 10.961c.073-.27.123-.566.123-.861 0-.295-.05-.59-.123-.86l5.878-3.518a2.9 2.9 0 0 0 2.36 1.18 2.96 2.96 0 0 0 2.952-2.95zm-.984 12.297a1.973 1.973 0 0 1-1.967 1.968 1.973 1.973 0 0 1-1.968-1.968c0-1.082.886-1.967 1.968-1.967 1.082 0 1.967.885 1.967 1.967zM1.984 10.1c0-1.082.885-1.968 1.967-1.968S5.92 9.018 5.92 10.1a1.973 1.973 0 0 1-1.968 1.967A1.973 1.973 0 0 1 1.984 10.1zM16.986 3.95A1.973 1.973 0 0 1 15.02 5.92 1.973 1.973 0 0 1 13.05 3.95c0-1.082.886-1.967 1.968-1.967 1.082 0 1.967.885 1.967 1.967z"/>
</svg>
